<?xml version="1.0" encoding="UTF-8" standalone="no"?>
<!-- Created with Inkscape (http://www.inkscape.org/) -->

<svg
   xmlns:osb="http://www.openswatchbook.org/uri/2009/osb"
   xmlns:dc="http://purl.org/dc/elements/1.1/"
   xmlns:cc="http://creativecommons.org/ns#"
   xmlns:rdf="http://www.w3.org/1999/02/22-rdf-syntax-ns#"
   xmlns:svg="http://www.w3.org/2000/svg"
   xmlns="http://www.w3.org/2000/svg"
   xmlns:sodipodi="http://sodipodi.sourceforge.net/DTD/sodipodi-0.dtd"
   xmlns:inkscape="http://www.inkscape.org/namespaces/inkscape"
   width="48"
   height="48"
   viewBox="0 0 12.7 12.7"
   version="1.1"
   id="svg8"
   inkscape:version="0.92.2 (5c3e80d, 2017-08-06)"
   sodipodi:docname="grid_outer.svg"
   inkscape:export-filename="C:\Users\hretaure\wks\wvb\ict\icons\grid_outer.png"
   inkscape:export-xdpi="96"
   inkscape:export-ydpi="96">
  <defs
     id="defs2">
    <linearGradient
       id="linearGradient5968"
       osb:paint="solid">
      <stop
         style="stop-color:#000000;stop-opacity:1;"
         offset="0"
         id="stop5966" />
    </linearGradient>
    <linearGradient
       id="linearGradient4512"
       osb:paint="solid">
      <stop
         style="stop-color:#000000;stop-opacity:1;"
         offset="0"
         id="stop4510" />
    </linearGradient>
  </defs>
  <sodipodi:namedview
     id="base"
     pagecolor="#ffffff"
     bordercolor="#666666"
     borderopacity="1.0"
     inkscape:pageopacity="0.0"
     inkscape:pageshadow="2"
     inkscape:zoom="14.095224"
     inkscape:cx="21.228746"
     inkscape:cy="25.750015"
     inkscape:document-units="px"
     inkscape:current-layer="layer1"
     showgrid="false"
     inkscape:window-width="1920"
     inkscape:window-height="1057"
     inkscape:window-x="-8"
     inkscape:window-y="-8"
     inkscape:window-maximized="1"
     units="px"
     inkscape:pagecheckerboard="true"
     inkscape:snap-bbox="false"
     inkscape:snap-global="false"
     borderlayer="true"
     showborder="true" />
  <metadata
     id="metadata5">
    <rdf:RDF>
      <cc:Work
         rdf:about="">
        <dc:format>image/svg+xml</dc:format>
        <dc:type
           rdf:resource="http://purl.org/dc/dcmitype/StillImage" />
        <dc:title />
      </cc:Work>
    </rdf:RDF>
  </metadata>
  <g
     inkscape:label="Calque 1"
     inkscape:groupmode="layer"
     id="layer1"
     transform="translate(0,-284.3)">
    <rect
       id="rect4508-6-5-6"
       width="3.3026924"
       height="2.0020263"
       x="8.153266"
       y="286.73514"
       style="opacity:1;fill:none;fill-opacity:0.36078431;stroke:#5c5c5c;stroke-width:0.26918268;stroke-miterlimit:4;stroke-dasharray:none;stroke-dashoffset:2.64583325;stroke-opacity:1" />
    <rect
       id="rect4508-6-5"
       width="3.3026924"
       height="2.0020263"
       x="4.8284302"
       y="286.73514"
       style="opacity:1;fill:none;fill-opacity:0.36078431;stroke:#5c5c5c;stroke-width:0.26918268;stroke-miterlimit:4;stroke-dasharray:none;stroke-dashoffset:2.64583325;stroke-opacity:1" />
    <rect
       id="rect4508-6-5-6-4"
       width="3.3026924"
       height="2.0020263"
       x="8.153266"
       y="288.74802"
       style="opacity:1;fill:none;fill-opacity:0.36078431;stroke:#5c5c5c;stroke-width:0.26918268;stroke-miterlimit:4;stroke-dasharray:none;stroke-dashoffset:2.64583325;stroke-opacity:1" />
    <rect
       id="rect4508-6-5-9"
       width="3.3026924"
       height="2.0020263"
       x="4.8284302"
       y="288.74802"
       style="opacity:1;fill:none;fill-opacity:0.36078431;stroke:#5c5c5c;stroke-width:0.26918268;stroke-miterlimit:4;stroke-dasharray:none;stroke-dashoffset:2.64583325;stroke-opacity:1" />
    <rect
       id="rect4508-6-5-6-3"
       width="3.3026924"
       height="2.0020263"
       x="8.153266"
       y="290.74838"
       style="opacity:1;fill:none;fill-opacity:0.36078431;stroke:#5c5c5c;stroke-width:0.26918268;stroke-miterlimit:4;stroke-dasharray:none;stroke-dashoffset:2.64583325;stroke-opacity:1" />
    <rect
       id="rect4508-6-5-0"
       width="3.3026924"
       height="2.0020263"
       x="4.8284302"
       y="290.74838"
       style="opacity:1;fill:none;fill-opacity:0.36078431;stroke:#5c5c5c;stroke-width:0.26918268;stroke-miterlimit:4;stroke-dasharray:none;stroke-dashoffset:2.64583325;stroke-opacity:1" />
    <rect
       id="rect4508-6-5-6-4-1"
       width="3.3026924"
       height="2.0020263"
       x="8.153266"
       y="292.76126"
       style="opacity:1;fill:none;fill-opacity:0.36078431;stroke:#5c5c5c;stroke-width:0.26918268;stroke-miterlimit:4;stroke-dasharray:none;stroke-dashoffset:2.64583325;stroke-opacity:1" />
    <rect
       id="rect4508-6-5-9-0"
       width="3.3026924"
       height="2.0020263"
       x="4.8284302"
       y="292.76126"
       style="opacity:1;fill:none;fill-opacity:0.36078431;stroke:#5c5c5c;stroke-width:0.26918268;stroke-miterlimit:4;stroke-dasharray:none;stroke-dashoffset:2.64583325;stroke-opacity:1" />
    <rect
       id="rect4508-6-5-1"
       width="3.3026924"
       height="2.0020263"
       x="1.533666"
       y="288.74802"
       style="opacity:1;fill:none;fill-opacity:0.36078431;stroke:#5c5c5c;stroke-width:0.26918268;stroke-miterlimit:4;stroke-dasharray:none;stroke-dashoffset:2.64583325;stroke-opacity:1" />
    <rect
       id="rect4508-6-5-4"
       width="3.3026924"
       height="2.0020263"
       x="1.533666"
       y="292.76126"
       style="opacity:1;fill:none;fill-opacity:0.36078431;stroke:#5c5c5c;stroke-width:0.26918268;stroke-miterlimit:4;stroke-dasharray:none;stroke-dashoffset:2.64583325;stroke-opacity:1" />
    <rect
       id="rect4508-6-5-11"
       width="3.3026924"
       height="2.0020263"
       x="1.533666"
       y="290.74838"
       style="opacity:1;fill:none;fill-opacity:0.36078431;stroke:#5c5c5c;stroke-width:0.26918268;stroke-miterlimit:4;stroke-dasharray:none;stroke-dashoffset:2.64583325;stroke-opacity:1" />
    <rect
       id="rect4508-6"
       width="3.3026924"
       height="2.0020263"
       x="1.533666"
       y="286.73514"
       style="opacity:1;fill:#c08080;fill-opacity:0.36078431;stroke:#5c5c5c;stroke-width:0.26918268;stroke-miterlimit:4;stroke-dasharray:none;stroke-dashoffset:2.64583325;stroke-opacity:1" />
    <path
       style="fill:none;stroke:#000000;stroke-width:0.37044892;stroke-linecap:butt;stroke-linejoin:miter;stroke-miterlimit:4;stroke-dasharray:0.74089777, 0.37044888;stroke-dashoffset:0;stroke-opacity:1"
       d="m 2.5274495,287.8396 c 0.1314545,-0.16566 -0.019273,0.0289 0.071758,-0.0705 0.031433,-0.0343 -0.00717,-0.0163 0.043055,-0.0471 0.00856,-0.004 0.022286,-0.004 0.028704,-0.0117 0.00908,-0.01 0.00758,-0.0242 0.014351,-0.0351 0.029449,-0.0483 0.02181,-0.0224 0.057406,-0.0588 0.021551,-0.0221 0.035322,-0.0489 0.057407,-0.0705 0.021656,-0.0213 0.047839,-0.0392 0.07176,-0.0588 0.014351,-0.0117 0.027206,-0.0249 0.043055,-0.0351 0.00835,-0.005 0.02114,-0.005 0.028704,-0.0117 0.01748,-0.0143 0.00673,-0.0262 0.028704,-0.0351 0.00429,-0.003 0.01097,0.003 0.014351,0 0.00338,-0.003 -0.00429,-0.01 0,-0.0117 0.0097,-0.003 0.069338,0.003 0.08611,0 0.019341,-0.003 0.038441,-0.008 0.057407,-0.0117 0.1209484,-0.0283 -0.039687,0.009 0.08611,-0.0351 0.01813,-0.007 0.038441,-0.008 0.057407,-0.0117 0.014546,-0.003 0.029008,-0.008 0.043055,-0.0117 0.033462,-0.0109 0.030959,-0.0181 0.071759,-0.0236 0.014156,-0.003 0.0289,0.003 0.043055,0 0.014921,-0.003 0.028134,-0.01 0.043055,-0.0117 0.014157,-0.003 0.028704,0 0.043055,0 0.033486,0 0.066975,0 0.100462,0 0.052624,0 0.1053795,-0.003 0.1578687,0 0.1052975,0.006 0.1616574,0.0268 0.2726826,0.047 0.028406,0.004 0.058297,0.004 0.08611,0.0117 0.034822,0.009 0.066457,0.0246 0.1004619,0.0351 0.033572,0.0105 0.1032071,0.0292 0.1435172,0.0351 0.033282,0.004 0.067094,0.008 0.1004619,0.0117 0.024062,0.003 0.047449,0.01 0.071759,0.0118 0.033372,0.003 0.066976,0 0.100462,0 0.028704,0 0.057407,0 0.08611,0 0.090894,0 0.1817883,0 0.2726825,0 0.1243815,0 0.248763,0 0.3731444,0 0.023919,0 0.047837,0 0.071759,0 0.019137,0 0.03842,0.003 0.057407,0 0.049548,-0.004 0.095955,-0.0241 0.1435172,-0.0351 0.018965,-0.004 0.038695,-0.007 0.057406,-0.0117 0.054322,-0.0149 0.074137,-0.0296 0.1291655,-0.0351 0.018987,-0.003 0.038643,0.003 0.057406,0 0.094155,-0.0257 0.068613,-0.0221 0.1578688,-0.0351 0.028631,-0.004 0.059092,-0.003 0.08611,-0.0118 0.022208,-0.008 0.036013,-0.0265 0.057407,-0.0351 0.011885,-0.004 0.1236292,-0.0231 0.1291655,-0.0236 0.1157704,-0.009 0.052624,0.008 0.1578689,0 0.03371,-0.003 0.066752,-0.009 0.1004621,-0.0117 0.023837,-0.003 0.047837,0 0.071759,0 0.043055,0 0.08611,0 0.1291654,0 0.028704,0 0.057491,0.003 0.08611,0 0.033728,-0.003 0.066866,-0.009 0.1004618,-0.0117 0.047748,-0.004 0.096094,-0.004 0.1435172,-0.0119 0.067564,-0.009 0.1331174,-0.0274 0.2009242,-0.0351 0.06647,-0.008 0.1342971,-0.004 0.200924,-0.0117 0.158091,-0.0163 0.1081151,-0.0267 0.243979,-0.0351 0.028619,-0.003 0.057406,0 0.08611,0 0.057407,0 0.1148728,0.003 0.1722204,0 0.1026277,-0.003 0.1743562,-0.0139 0.2726826,-0.0351 0.029235,-0.007 0.057406,-0.0156 0.08611,-0.0235 0.014352,-0.003 0.028133,-0.01 0.043055,-0.0117 0.014156,-0.003 0.028704,0 0.043055,0 0.023919,0 0.047959,-0.003 0.071759,0 0.024273,0.003 0.049552,0.003 0.071759,0.0117 0.1425278,0.053 0.029769,0.0418 0.143517,0.0588 0.066563,0.01 0.1339493,0.0156 0.2009241,0.0236 0.033487,0.003 0.066721,0.01 0.1004613,0.0117 0.033398,0.003 0.067359,-0.004 0.100462,0 0.029903,0.003 0.056575,0.0183 0.086108,0.0236 0.014005,0.003 0.028706,0 0.043054,0 0.043054,0 0.086108,0 0.129166,0 0.014348,0 0.029137,-0.003 0.043054,0 0.020757,0.004 0.037103,0.0181 0.057411,0.0236 0.018697,0.004 0.038274,0.008 0.057403,0.0118 0.019128,0.008 0.037385,0.0175 0.057411,0.0236 0.018477,0.005 0.038934,0.006 0.057403,0.0117 0.020035,0.006 0.037385,0.0175 0.057411,0.0236 0.036927,0.0113 0.076883,0.0147 0.1148131,0.0236 0.01456,0.003 0.028996,0.008 0.043054,0.0117 0.019868,0.007 0.037544,0.0171 0.057403,0.0236 0.017271,0.005 0.05492,0.0124 0.07176,0.0235 0.03674,0.0241 0.06371,0.0582 0.100461,0.0823 0.01348,0.009 0.02842,0.0161 0.04305,0.0235 0.07208,0.0369 0.06063,0.0306 0.129165,0.0588 0.01913,0.008 0.03775,0.0167 0.0574,0.0236 0.01391,0.004 0.02901,0.008 0.04305,0.0117 0.02451,-0.004 0.02763,0.0174 0.04305,0.0236 0.0042,0.003 0.01007,-0.003 0.01435,0 0.006,0.003 0.0096,0.008 0.01435,0.0118 0.0048,0.003 0.01132,0.007 0.01435,0.0118 0.01767,0.029 -0.04166,-0.0105 0.01435,0.0351 0.0075,0.006 0.02015,0.007 0.0287,0.0118 0.0371,0.0228 0.02602,0.028 0.0574,0.0588 0.08423,0.0829 0.0029,-0.0251 0.114814,0.10586 0.03998,0.0468 0.03177,0.0692 0.04305,0.12937 0.0044,0.0236 0.01115,0.0468 0.01435,0.0705 0.0016,0.0116 -0.002,0.0237 0,0.0351 0.0027,0.0161 0.01156,0.031 0.01436,0.0471 0.002,0.0117 0,0.0236 0,0.0351 0,0.0156 0,0.0313 0,0.0471 0,0.0666 0,0.13329 0,0.19994 0,0.051 0.0046,0.10207 0,0.1529 -0.0049,0.0553 -0.02064,0.1096 -0.02869,0.16464 -0.0062,0.043 -0.0088,0.0863 -0.01435,0.1294 -0.01791,0.13942 -0.01435,0.0462 -0.01435,0.16464 0,0.0197 -0.0021,0.0392 0,0.0588 0.01456,0.13112 -2.21e-4,0.0231 0.04305,0.10585 0.0077,0.0148 0.0096,0.0314 0.01435,0.0471 0.0096,0.0157 0.01913,0.0313 0.02869,0.0471 0.01158,0.019 0.03882,0.0581 0.04305,0.0823 0.0026,0.0155 0,0.0314 0,0.0471 0,0.0392 0,0.0785 0,0.11761 0,0.0275 -0.0023,0.055 0,0.0823 0.0024,0.0276 -0.0015,0.0578 0.01436,0.0823 0.04224,0.0653 0.126251,0.13191 0.200923,0.17641 0.02256,0.0135 0.06844,0.0128 0.07176,0.0351 0.01259,0.086 -0.01703,0.17267 -0.0287,0.25874 -0.01225,0.0904 -0.02599,0.18066 -0.04305,0.27052 -0.01644,0.0866 -0.04649,0.17154 -0.0574,0.25873 -0.0083,0.0663 0.0026,0.13335 0,0.19994 -0.0021,0.055 -0.01083,0.10973 -0.01434,0.16468 -0.0027,0.0429 0,0.0863 0,0.12937 0,0.051 0,0.10193 0,0.15289 0,0.0155 0,0.0313 0,0.0471 0,0.008 0.0016,0.0159 0,0.0236 -0.0096,0.0474 -0.02136,0.0584 -0.04305,0.10584 -0.01927,0.0422 -0.02803,0.0863 -0.04305,0.12938 -0.04118,0.11811 0.01616,-0.0647 -0.0287,0.0824 -0.0048,0.0157 -0.01217,0.031 -0.01435,0.0471 -0.0026,0.0195 0,0.0391 0,0.0588 0,0.0549 0,0.10977 0,0.16465 0,0.0471 -0.0094,0.0947 0,0.14115 0.0052,0.0259 0.03113,0.0463 0.04305,0.0705 0.0073,0.0149 0.0074,0.0319 0.01435,0.047 0.03775,0.0825 0.01577,0.014 0.0574,0.0824 0.0067,0.011 0.01069,0.0233 0.01435,0.0351 0.0011,0.003 -0.0011,0.008 0,0.0117 0.0036,0.0119 0.01187,0.023 0.01434,0.0351 0.0023,0.0115 0,0.0236 0,0.0351 0,0.0117 0,0.0236 0,0.0351 0,0.043 0,0.0863 0,0.12937 0,0.0391 0,0.0785 0,0.1176 0,0.0197 0.0039,0.0394 0,0.0588 -0.01,0.049 -0.01309,0.0205 -0.0287,0.0588 -0.0016,0.003 0.0033,0.009 0,0.0117 -0.0075,0.006 -0.01915,0.008 -0.0287,0.0118 -0.0096,0.008 -0.02026,0.0149 -0.0287,0.0236 -0.01077,0.0109 -0.01867,0.0239 -0.02869,0.0351 -0.03001,0.0343 -0.07847,0.0816 -0.100462,0.1176 -3.65e-4,5.9e-4 -0.05671,0.13968 -0.0574,0.14113 -0.0079,0.0163 -0.02028,0.031 -0.0287,0.0471 -0.0059,0.0114 -0.0059,0.0251 -0.01434,0.0351 -0.0026,0.003 -0.01097,-0.003 -0.01436,0 -0.0033,0.003 0,0.008 0,0.0118 0,0.0155 0,0.0313 0,0.0471 0,0.0119 -0.0023,0.0766 0,0.0824 0.01734,0.0427 0.03221,0.0463 0.0574,0.0823 0.02387,0.0342 0.0423,0.0687 0.05741,0.10586 0.0048,0.0117 0.01138,0.0231 0.01435,0.0351 5.9e-5,2.4e-4 0.0016,0.0433 0,0.0471 -0.01733,0.0425 -0.0068,0.009 -0.02869,0.0351 -0.0059,0.008 -0.01039,0.0154 -0.01435,0.0236 -0.01672,0.0342 -0.02881,0.0707 -0.04305,0.10586 -0.0048,0.0117 -0.0075,0.0242 -0.01435,0.0351 -0.0065,0.0108 -0.05378,0.038 -0.0574,0.0471 -0.003,0.008 0.0042,0.0165 0,0.0236 -0.0021,0.003 -0.01097,-0.003 -0.01435,0 -0.0033,0.003 0,0.008 0,0.0117 -0.0096,0.003 -0.01856,0.009 -0.0287,0.0117 -0.0045,0.002 -0.01221,-0.003 -0.01435,0 -0.0042,0.008 0.003,0.0162 0,0.0235 -0.0021,0.004 -0.0096,0.008 -0.01435,0.0119 -0.01435,0.0117 -0.03125,0.0218 -0.04305,0.0351 -0.03315,0.038 -0.02928,0.0644 -0.0574,0.10585 -0.0116,0.0172 -0.02914,0.0311 -0.04305,0.0471 -0.01003,0.0115 -0.01651,0.0253 -0.0287,0.0351 -0.01219,0.01 -0.02869,0.0156 -0.04305,0.0236 -0.01435,0.008 -0.02721,0.0181 -0.04305,0.0236 -0.04431,0.0156 -0.06839,0.0117 -0.114814,0.0117 -0.02393,0 -0.04783,0 -0.07175,0 -0.03349,0 -0.06709,0.003 -0.100462,0 -0.02431,-0.003 -0.047465,-0.01 -0.07176,-0.0117 -0.04764,-0.003 -0.095677,0 -0.1435161,0 -0.028697,0 -0.057808,0.003 -0.086108,0 -0.02985,-0.004 -0.056161,-0.0201 -0.086108,-0.0236 -0.037887,-0.004 -0.076549,0 -0.114814,0 -0.047834,0 -0.095678,0 -0.1435179,0 -0.1291642,0 -0.2583301,0 -0.3874949,0 -0.062191,0 -0.1246368,0.004 -0.1865725,0 -0.2183713,-0.0164 -0.3235005,-0.0422 -0.5310131,-0.0824 -0.081327,-0.0156 -0.1632135,-0.0296 -0.2439793,-0.0471 -0.081948,-0.0179 -0.1605754,-0.0464 -0.243979,-0.0588 -0.075455,-0.0111 -0.1531055,-0.008 -0.2296275,-0.0117 -0.066997,-0.003 -0.134221,-0.005 -0.2009238,-0.0117 -0.3032917,-0.0286 -0.052655,-0.0236 -0.2870344,-0.0236 -0.1709017,0 -0.3605199,0.007 -0.5166614,0.0705 -0.021394,0.009 -0.03781,0.024 -0.057407,0.0351 -0.028261,0.0164 -0.055254,0.0344 -0.08611,0.0471 -0.038767,0.016 -0.2257343,0.0669 -0.258331,0.0704 -0.056881,0.006 -0.1148138,0 -0.1722205,0 -0.033486,0 -0.066975,0 -0.100462,0 -0.2499544,0 0.1771176,-0.003 -0.1865723,0.0117 -0.062121,0.003 -0.1245515,-0.003 -0.1865724,0 -0.1990106,0.012 -0.2007984,0.0425 -0.4018477,0.0236 -0.058784,-0.005 -0.114456,-0.0248 -0.1722206,-0.0351 -0.071437,-0.0129 -0.1430299,-0.0258 -0.2152757,-0.0351 -0.076154,-0.01 -0.1528478,-0.0174 -0.2296273,-0.0235 -0.044883,-0.003 -0.3075819,-0.0145 -0.3731446,-0.0236 -0.053804,-0.008 -0.1037452,-0.0297 -0.1578688,-0.0351 -0.018988,-0.003 -0.038271,0 -0.057407,0 -0.028704,0 -0.057406,0 -0.08611,0 -0.019135,0 -0.038419,0.003 -0.057407,0 -0.019572,-0.003 -0.037803,-0.01 -0.057407,-0.0117 -0.023774,-0.003 -0.047837,0 -0.071759,0 -0.028704,0 -0.057407,0 -0.08611,0 -0.043055,0 -0.08611,0 -0.1291655,0 -0.019136,0 -0.038271,0 -0.057407,0 -0.00479,0 -0.010073,0.003 -0.014351,0 -0.012102,-0.004 -0.017445,-0.0174 -0.028704,-0.0236 -0.0089,-0.004 -0.019135,-0.008 -0.028704,-0.0118 -0.014352,-0.0117 -0.027465,-0.0246 -0.043056,-0.0351 -0.038144,-0.0261 -0.055798,-0.0261 -0.1004619,-0.0471 -0.022926,-0.0107 -0.04563,-0.0281 -0.071759,-0.0351 -0.00454,-0.002 -0.00981,0.002 -0.014351,0 -0.010149,-0.003 -0.018554,-0.009 -0.028704,-0.0118 -0.00454,-0.002 -0.00957,0 -0.014351,0 -0.012643,0 -0.059116,0 -0.071759,0 -0.014351,0 -0.028704,0 -0.043055,0 -0.00479,0 -0.00981,0.002 -0.014351,0 -0.1039554,-0.0284 0.022627,0.003 -0.043055,-0.0235 -0.00856,-0.003 -0.021937,0.005 -0.028704,0 -0.00879,-0.008 -0.012217,-0.0307 -0.028704,-0.0351 -0.00908,-0.003 -0.019135,0 -0.028704,0 -0.014351,0 -0.028704,0 -0.043055,0 -0.043055,0 -0.08611,0 -0.1291654,0 -0.022736,0 -0.038776,0.003 -0.057407,-0.0117 -0.00338,-0.003 0.00215,-0.009 0,-0.0117 -0.00303,-0.004 -0.00957,-0.008 -0.014351,-0.0117 0,-0.008 0.00429,-0.0166 0,-0.0235 -0.00215,-0.003 -0.00957,0 -0.014351,0 -0.00479,-0.008 -0.012253,-0.0149 -0.014351,-0.0236 -0.00283,-0.0115 0.00202,-0.0236 0,-0.0351 -0.0028,-0.016 -0.012172,-0.031 -0.014351,-0.0471 -0.00263,-0.0195 0.00217,-0.0391 0,-0.0588 -0.00263,-0.0238 -0.00993,-0.0469 -0.014351,-0.0705 -0.00487,-0.0259 -0.017043,-0.11007 -0.028704,-0.14113 -0.012022,-0.0321 -0.030129,-0.0623 -0.043055,-0.094 -0.00981,-0.0241 -0.041328,-0.12654 -0.057407,-0.1529 -0.015428,-0.0253 -0.043132,-0.0449 -0.057408,-0.0706 -0.010094,-0.0182 -0.00906,-0.0392 -0.014352,-0.0588 -0.00428,-0.0159 -0.011905,-0.031 -0.014352,-0.0471 -0.00651,-0.0428 0.00651,-0.0984 0,-0.14114 -0.00247,-0.0163 -0.020038,-0.0645 -0.028703,-0.0823 -0.015309,-0.0313 -0.019184,-0.0199 -0.028703,-0.0588 -0.00188,-0.008 0,-0.0156 0,-0.0236 0,-0.0275 0,-0.0549 0,-0.0824 0,-0.008 0.00232,-0.0159 0,-0.0236 -0.023252,-0.0763 -0.011613,0.0555 -0.028703,-0.0704 -0.00264,-0.0195 -0.0014,-0.0392 0,-0.0588 0.00805,-0.11203 0.016139,-0.17197 0.043055,-0.28226 0.00774,-0.0316 0.022218,-0.0622 0.028704,-0.0941 0.00314,-0.0154 0,-0.0314 0,-0.0471 0,-0.051 0.00428,-0.10206 0,-0.15291 -0.00531,-0.063 -0.021274,-0.12526 -0.028704,-0.18818 -0.00693,-0.0586 -0.00543,-0.11793 -0.014352,-0.17641 -0.01259,-0.0826 -0.065232,-0.30729 -0.1004621,-0.38812 -0.021587,-0.0495 -0.058418,-0.0937 -0.08611,-0.14115 -0.02494,-0.0427 -0.047146,-0.0865 -0.071759,-0.12937 -0.013664,-0.0239 -0.028703,-0.0471 -0.043055,-0.0704 -0.00957,-0.0157 -0.022826,-0.0302 -0.028703,-0.0471 -0.00394,-0.0112 0,-0.0236 0,-0.0351 0,-0.0236 -0.00169,-0.0472 0,-0.0704 0.022727,-0.31662 0.00348,0.0158 0.028703,-0.21168 0.00173,-0.0157 0,-0.0314 0,-0.0471 0,-0.0118 0.00533,-0.0244 0,-0.0351 -0.00503,-0.0102 -0.020251,-0.0149 -0.028703,-0.0236 -0.010775,-0.0109 -0.02099,-0.0227 -0.028704,-0.0351 -0.02656,-0.0436 -0.00657,-0.0313 -0.014352,-0.0824 -0.00245,-0.0161 -0.012173,-0.0309 -0.014352,-0.0471 -0.00264,-0.0195 0,-0.0391 0,-0.0588 0,-0.0275 -0.00257,-0.055 0,-0.0823 0.01909,-0.20339 0.0031,0.0507 0.043055,-0.12938 0.022758,-0.10258 -0.0226,-0.0368 0.014352,-0.11761 0.022739,-0.0498 0.1159325,-0.15782 0.1291654,-0.17642 0.052833,-0.0743 0.1573722,-0.24934 0.2152757,-0.31756 0.032897,-0.0386 0.075888,-0.0711 0.1148137,-0.10585 0.013715,-0.0122 0.031796,-0.0215 0.043055,-0.0351 0.00839,-0.0103 0.00365,-0.0266 0.014351,-0.0351 0.041074,-0.0336 0.017974,0.0293 0.043055,-0.0117 0.00214,-0.003 0,-0.008 0,-0.0117 0.00478,-0.008 0.00885,-0.016 0.014351,-0.0235 0.00887,-0.012 0.018679,-0.0239 0.028704,-0.0351 0.013902,-0.0161 0.032357,-0.0296 0.043055,-0.0471 0.00882,-0.0145 0.00957,-0.0313 0.014351,-0.0471 0.00479,-0.0156 0.012172,-0.031 0.014351,-0.0471 0.00264,-0.0195 0,-0.0391 0,-0.0588 0,-0.0275 0,-0.0549 0,-0.0824 0,-0.0156 0.00465,-0.0318 0,-0.0471 -0.00519,-0.0171 -0.021191,-0.0306 -0.028704,-0.0471 -0.00693,-0.0152 -0.00812,-0.0316 -0.014351,-0.0471 -0.00814,-0.0201 -0.021626,-0.0385 -0.028704,-0.0588 -0.00263,-0.008 0,-0.0157 0,-0.0236 0,-0.0197 0,-0.0391 0,-0.0588 0,-0.0236 0.00472,-0.0474 0,-0.0705 -0.014679,-0.0722 -0.034199,-0.0677 -0.071759,-0.12937 -0.011522,-0.019 -0.018554,-0.0393 -0.028704,-0.0588 -0.00423,-0.008 -0.012253,-0.0149 -0.014351,-0.0236 -0.00283,-0.0114 0,-0.0235 0,-0.0351 0,-0.0295 -0.00677,-0.0252 0.028704,-0.0471 0.00856,-0.004 0.018554,-0.009 0.028704,-0.0117 0.00454,-0.002 0.01097,0.003 0.014351,0 0.029694,-0.0244 -0.045377,0.002 0.014351,-0.0236 0.00856,-0.003 0.021938,0.005 0.028704,0 0.00338,-0.003 0,-0.008 0,-0.0117 0,-0.009 -0.00185,-0.0675 0,-0.0706 0.03284,-0.0539 -0.00594,0.0499 0.028704,-0.0351 0.00454,-0.0111 -0.00454,-0.0241 0,-0.0351 0.00215,-0.004 0.011327,-0.007 0.014351,-0.0117 0.00429,-0.008 -0.00355,-0.0163 0,-0.0236 0.00795,-0.0164 0.019135,-0.0314 0.028704,-0.0471 z"
       id="path827"
       inkscape:connector-curvature="0"
       inkscape:export-xdpi="96"
       inkscape:export-ydpi="96" />
  </g>
</svg>
