<?xml version="1.0" encoding="UTF-8" standalone="no"?>
<!-- Created with Inkscape (http://www.inkscape.org/) -->

<svg
   xmlns:osb="http://www.openswatchbook.org/uri/2009/osb"
   xmlns:dc="http://purl.org/dc/elements/1.1/"
   xmlns:cc="http://creativecommons.org/ns#"
   xmlns:rdf="http://www.w3.org/1999/02/22-rdf-syntax-ns#"
   xmlns:svg="http://www.w3.org/2000/svg"
   xmlns="http://www.w3.org/2000/svg"
   xmlns:sodipodi="http://sodipodi.sourceforge.net/DTD/sodipodi-0.dtd"
   xmlns:inkscape="http://www.inkscape.org/namespaces/inkscape"
   width="48"
   height="48"
   viewBox="0 0 12.7 12.7"
   version="1.1"
   id="svg8"
   inkscape:version="0.92.2 (5c3e80d, 2017-08-06)"
   sodipodi:docname="grid_inner.svg"
   inkscape:export-filename="C:\Users\hretaure\wks\wvb\ict\icons\grid_inner.png"
   inkscape:export-xdpi="96"
   inkscape:export-ydpi="96">
  <defs
     id="defs2">
    <linearGradient
       id="linearGradient5968"
       osb:paint="solid">
      <stop
         style="stop-color:#000000;stop-opacity:1;"
         offset="0"
         id="stop5966" />
    </linearGradient>
    <linearGradient
       id="linearGradient4512"
       osb:paint="solid">
      <stop
         style="stop-color:#000000;stop-opacity:1;"
         offset="0"
         id="stop4510" />
    </linearGradient>
  </defs>
  <sodipodi:namedview
     id="base"
     pagecolor="#ffffff"
     bordercolor="#666666"
     borderopacity="1.0"
     inkscape:pageopacity="0.0"
     inkscape:pageshadow="2"
     inkscape:zoom="14.095224"
     inkscape:cx="35.063219"
     inkscape:cy="25.750015"
     inkscape:document-units="px"
     inkscape:current-layer="layer1"
     showgrid="false"
     inkscape:window-width="1920"
     inkscape:window-height="1057"
     inkscape:window-x="-8"
     inkscape:window-y="-8"
     inkscape:window-maximized="1"
     units="px"
     inkscape:pagecheckerboard="true"
     inkscape:snap-bbox="false"
     inkscape:snap-global="false"
     borderlayer="true"
     showborder="true" />
  <metadata
     id="metadata5">
    <rdf:RDF>
      <cc:Work
         rdf:about="">
        <dc:format>image/svg+xml</dc:format>
        <dc:type
           rdf:resource="http://purl.org/dc/dcmitype/StillImage" />
        <dc:title />
      </cc:Work>
    </rdf:RDF>
  </metadata>
  <g
     inkscape:label="Calque 1"
     inkscape:groupmode="layer"
     id="layer1"
     transform="translate(0,-284.3)">
    <rect
       id="rect4508-6-5-6"
       width="3.3026924"
       height="2.0020263"
       x="8.153266"
       y="286.73514"
       style="opacity:1;fill:none;fill-opacity:0.36078431;stroke:#5c5c5c;stroke-width:0.26918268;stroke-miterlimit:4;stroke-dasharray:none;stroke-dashoffset:2.64583325;stroke-opacity:1" />
    <rect
       id="rect4508-6-5"
       width="3.3026924"
       height="2.0020263"
       x="4.8284302"
       y="286.73514"
       style="opacity:1;fill:none;fill-opacity:0.36078431;stroke:#5c5c5c;stroke-width:0.26918268;stroke-miterlimit:4;stroke-dasharray:none;stroke-dashoffset:2.64583325;stroke-opacity:1" />
    <rect
       id="rect4508-6-5-6-4"
       width="3.3026924"
       height="2.0020263"
       x="8.153266"
       y="288.74802"
       style="opacity:1;fill:none;fill-opacity:0.36078431;stroke:#5c5c5c;stroke-width:0.26918268;stroke-miterlimit:4;stroke-dasharray:none;stroke-dashoffset:2.64583325;stroke-opacity:1" />
    <rect
       id="rect4508-6-5-9"
       width="3.3026924"
       height="2.0020263"
       x="4.8284302"
       y="288.74802"
       style="opacity:1;fill:none;fill-opacity:0.36078431;stroke:#5c5c5c;stroke-width:0.26918268;stroke-miterlimit:4;stroke-dasharray:none;stroke-dashoffset:2.64583325;stroke-opacity:1" />
    <rect
       id="rect4508-6-5-6-3"
       width="3.3026924"
       height="2.0020263"
       x="8.153266"
       y="290.74838"
       style="opacity:1;fill:none;fill-opacity:0.36078431;stroke:#5c5c5c;stroke-width:0.26918268;stroke-miterlimit:4;stroke-dasharray:none;stroke-dashoffset:2.64583325;stroke-opacity:1" />
    <rect
       id="rect4508-6-5-0"
       width="3.3026924"
       height="2.0020263"
       x="4.8284302"
       y="290.74838"
       style="opacity:1;fill:none;fill-opacity:0.36078431;stroke:#5c5c5c;stroke-width:0.26918268;stroke-miterlimit:4;stroke-dasharray:none;stroke-dashoffset:2.64583325;stroke-opacity:1" />
    <rect
       id="rect4508-6-5-6-4-1"
       width="3.3026924"
       height="2.0020263"
       x="8.153266"
       y="292.76126"
       style="opacity:1;fill:none;fill-opacity:0.36078431;stroke:#5c5c5c;stroke-width:0.26918268;stroke-miterlimit:4;stroke-dasharray:none;stroke-dashoffset:2.64583325;stroke-opacity:1" />
    <rect
       id="rect4508-6-5-9-0"
       width="3.3026924"
       height="2.0020263"
       x="4.8284302"
       y="292.76126"
       style="opacity:1;fill:none;fill-opacity:0.36078431;stroke:#5c5c5c;stroke-width:0.26918268;stroke-miterlimit:4;stroke-dasharray:none;stroke-dashoffset:2.64583325;stroke-opacity:1" />
    <rect
       id="rect4508-6-5-1"
       width="3.3026924"
       height="2.0020263"
       x="1.533666"
       y="288.74802"
       style="opacity:1;fill:none;fill-opacity:0.36078431;stroke:#5c5c5c;stroke-width:0.26918268;stroke-miterlimit:4;stroke-dasharray:none;stroke-dashoffset:2.64583325;stroke-opacity:1" />
    <rect
       id="rect4508-6-5-4"
       width="3.3026924"
       height="2.0020263"
       x="1.533666"
       y="292.76126"
       style="opacity:1;fill:none;fill-opacity:0.36078431;stroke:#5c5c5c;stroke-width:0.26918268;stroke-miterlimit:4;stroke-dasharray:none;stroke-dashoffset:2.64583325;stroke-opacity:1" />
    <rect
       id="rect4508-6-5-11"
       width="3.3026924"
       height="2.0020263"
       x="1.533666"
       y="290.74838"
       style="opacity:1;fill:none;fill-opacity:0.36078431;stroke:#5c5c5c;stroke-width:0.26918268;stroke-miterlimit:4;stroke-dasharray:none;stroke-dashoffset:2.64583325;stroke-opacity:1" />
    <rect
       id="rect4508-6"
       width="3.3026924"
       height="2.0020263"
       x="1.533666"
       y="286.73514"
       style="opacity:1;fill:#c08080;fill-opacity:0.36078431;stroke:#5c5c5c;stroke-width:0.26918268;stroke-miterlimit:4;stroke-dasharray:none;stroke-dashoffset:2.64583325;stroke-opacity:1" />
    <path
       style="fill:none;stroke:#000000;stroke-width:0.48928198;stroke-linecap:butt;stroke-linejoin:miter;stroke-miterlimit:4;stroke-dasharray:0.97856397, 0.48928198;stroke-dashoffset:0;stroke-opacity:1"
       d="m 1.3300644,286.71516 c 0.1685797,-0.22535 -0.024715,0.0393 0.092025,-0.096 0.040309,-0.0467 -0.00919,-0.022 0.055214,-0.064 0.010974,-0.006 0.028579,-0.006 0.03681,-0.016 0.011641,-0.0134 0.00972,-0.0329 0.018404,-0.0479 0.037765,-0.0656 0.027969,-0.0304 0.073618,-0.08 0.027637,-0.03 0.045297,-0.0665 0.07362,-0.096 0.027772,-0.0289 0.061349,-0.0533 0.092026,-0.08 0.018404,-0.016 0.034889,-0.0338 0.055214,-0.0479 0.010712,-0.007 0.02711,-0.007 0.03681,-0.016 0.022417,-0.0195 0.00862,-0.0357 0.03681,-0.0479 0.00549,-0.003 0.014067,0.004 0.018404,0 0.00434,-0.004 -0.00549,-0.0136 0,-0.016 0.012437,-0.005 0.088921,0.004 0.1104295,0 0.024804,-0.005 0.049298,-0.01 0.073619,-0.016 0.1551066,-0.0385 -0.050895,0.012 0.1104294,-0.0479 0.02325,-0.009 0.049298,-0.01 0.07362,-0.016 0.018653,-0.005 0.037201,-0.01 0.055214,-0.016 0.042913,-0.0149 0.039703,-0.0244 0.092025,-0.032 0.018155,-0.003 0.037061,0.003 0.055214,0 0.019136,-0.003 0.036078,-0.0132 0.055214,-0.016 0.018155,-0.003 0.03681,0 0.055214,0 0.042944,0 0.08589,0 0.1288344,0 0.067485,0 0.1351407,-0.005 0.2024538,0 0.1350354,0.008 0.2073123,0.0364 0.3496932,0.064 0.036429,0.006 0.074762,0.006 0.1104294,0.016 0.044656,0.012 0.085226,0.0334 0.1288343,0.0479 0.043053,0.0144 0.1323546,0.0398 0.184049,0.0479 0.042681,0.006 0.086044,0.01 0.1288343,0.016 0.030858,0.005 0.06085,0.0137 0.092025,0.016 0.042797,0.004 0.08589,0 0.1288343,0 0.03681,0 0.073619,0 0.1104295,0 0.1165641,0 0.2331286,0 0.349693,0 0.1595091,0 0.3190183,0 0.4785274,0 0.030674,0 0.061348,0 0.092025,0 0.024542,0 0.04927,0.003 0.07362,0 0.063541,-0.006 0.123055,-0.0328 0.1840491,-0.0479 0.024321,-0.006 0.049623,-0.009 0.073619,-0.016 0.069664,-0.0202 0.095075,-0.0403 0.1656441,-0.0479 0.024349,-0.003 0.049556,0.005 0.073618,0 0.1207463,-0.035 0.08799,-0.0299 0.2024538,-0.0479 0.036716,-0.006 0.075781,-0.005 0.1104294,-0.016 0.02848,-0.01 0.046183,-0.0361 0.073619,-0.0479 0.015241,-0.006 0.1585444,-0.0314 0.1656441,-0.032 0.1484662,-0.0118 0.067486,0.01 0.202454,0 0.043231,-0.004 0.085604,-0.0129 0.1288344,-0.016 0.030569,-0.003 0.061349,0 0.092025,0 0.055214,0 0.1104293,0 0.1656441,0 0.03681,0 0.073729,0.003 0.1104293,0 0.043254,-0.003 0.085751,-0.0116 0.1288342,-0.016 0.061233,-0.006 0.1232324,-0.006 0.184049,-0.0161 0.086645,-0.0125 0.1707122,-0.0372 0.2576689,-0.0479 0.085243,-0.0106 0.1722251,-0.006 0.2576686,-0.016 0.2027389,-0.022 0.1386488,-0.0363 0.3128832,-0.0479 0.036701,-0.003 0.073618,0 0.1104294,0 0.073619,0 0.1473151,0.003 0.2208587,0 0.1316116,-0.005 0.2235975,-0.0187 0.3496933,-0.0479 0.037491,-0.009 0.073618,-0.0213 0.1104294,-0.0319 0.018405,-0.005 0.036078,-0.0133 0.055214,-0.016 0.018154,-0.003 0.03681,0 0.055214,0 0.030674,0 0.061503,-0.003 0.092025,0 0.031128,0.003 0.063547,0.005 0.092025,0.016 0.1827803,0.0721 0.038176,0.0569 0.1840489,0.08 0.085362,0.0134 0.1717791,0.0213 0.2576688,0.032 0.042944,0.005 0.085564,0.0133 0.1288342,0.016 0.042835,0.003 0.086388,-0.006 0.1288343,0 0.03835,0.005 0.072552,0.0248 0.1104295,0.032 0.017966,0.004 0.03681,0 0.055214,0 0.055214,0 0.1104284,0 0.1656444,0 0.0184,0 0.03736,-0.005 0.05521,0 0.02662,0.006 0.04759,0.0245 0.07363,0.032 0.02398,0.006 0.04908,0.0107 0.07362,0.0161 0.02454,0.0107 0.04793,0.0236 0.07363,0.0321 0.02369,0.007 0.04993,0.008 0.07362,0.016 0.02569,0.008 0.04793,0.0236 0.07363,0.032 0.04737,0.0154 0.09859,0.0199 0.147239,0.032 0.01867,0.005 0.03719,0.01 0.05521,0.016 0.02548,0.009 0.04814,0.0232 0.07362,0.032 0.02215,0.007 0.07043,0.017 0.09203,0.0319 0.04713,0.0328 0.0817,0.0792 0.128834,0.11201 0.01728,0.012 0.03645,0.0218 0.05521,0.0319 0.09244,0.0502 0.07775,0.0417 0.165644,0.08 0.02454,0.0107 0.0484,0.0226 0.07362,0.032 0.01784,0.006 0.03721,0.01 0.05521,0.016 0.03142,-0.006 0.03543,0.0235 0.05521,0.032 0.0055,0.003 0.01291,-0.003 0.0184,0 0.0077,0.004 0.01228,0.0107 0.0184,0.016 0.0062,0.005 0.01452,0.009 0.0184,0.0161 0.02266,0.0394 -0.05343,-0.0144 0.0184,0.0479 0.0097,0.008 0.02584,0.009 0.03681,0.0161 0.04759,0.031 0.03337,0.038 0.07362,0.08 0.108015,0.11268 0.0037,-0.0342 0.14724,0.14399 0.05128,0.0636 0.04075,0.0942 0.05521,0.17598 0.0057,0.0321 0.01429,0.0637 0.0184,0.096 0.0021,0.0159 -0.0026,0.0322 0,0.0479 0.0035,0.0217 0.01483,0.0422 0.01841,0.064 0.0026,0.0159 0,0.032 0,0.0479 0,0.0213 0,0.0426 0,0.064 0,0.0907 0,0.18132 0,0.27198 0,0.0693 0.0059,0.13884 0,0.20797 -0.0064,0.0752 -0.02648,0.14911 -0.0368,0.22398 -0.008,0.0584 -0.01132,0.11742 -0.0184,0.176 -0.02297,0.18968 -0.0184,0.0627 -0.0184,0.22397 0,0.0267 -0.0027,0.0534 0,0.0799 0.01867,0.17837 -2.84e-4,0.0314 0.05521,0.14399 0.0099,0.0202 0.01226,0.0427 0.0184,0.064 0.01227,0.0213 0.02454,0.0426 0.0368,0.064 0.01485,0.0258 0.04979,0.079 0.05521,0.11201 0.0034,0.0211 0,0.0427 0,0.064 0,0.0533 0,0.10665 0,0.15998 0,0.0374 -0.003,0.0747 0,0.11198 0.0031,0.0376 -0.0019,0.0786 0.01841,0.112 0.05416,0.0889 0.161906,0.17944 0.257667,0.23998 0.02893,0.0183 0.08776,0.0172 0.09203,0.0479 0.01614,0.11698 -0.02184,0.23489 -0.03681,0.35197 -0.01572,0.12295 -0.03334,0.24575 -0.05521,0.36797 -0.02108,0.11784 -0.05962,0.23334 -0.07362,0.35197 -0.01064,0.0902 0.0033,0.18138 0,0.27198 -0.0027,0.0748 -0.01389,0.14923 -0.0184,0.22398 -0.0035,0.0585 0,0.11733 0,0.17599 0,0.0693 0,0.13866 0,0.20798 0,0.0213 0,0.0426 0,0.064 0,0.0107 0.0021,0.0215 0,0.0321 -0.01233,0.0643 -0.0274,0.0795 -0.05521,0.14399 -0.02472,0.0573 -0.03594,0.11734 -0.05521,0.17598 -0.05281,0.16066 0.02073,-0.0881 -0.03681,0.11199 -0.0062,0.0213 -0.01561,0.0421 -0.0184,0.064 -0.0034,0.0265 0,0.0533 0,0.08 0,0.0746 0,0.14931 0,0.22397 0,0.064 -0.0121,0.12887 0,0.192 0.0067,0.0352 0.03992,0.0628 0.05521,0.096 0.0094,0.0205 0.0095,0.0434 0.0184,0.064 0.0484,0.1122 0.02022,0.0192 0.07362,0.112 0.0086,0.0151 0.0137,0.0316 0.0184,0.0479 0.0015,0.005 -0.0015,0.0108 0,0.016 0.0047,0.0163 0.01522,0.0313 0.0184,0.0479 0.003,0.0158 0,0.0321 0,0.0479 0,0.016 0,0.032 0,0.0479 0,0.0586 0,0.11733 0,0.17598 0,0.0533 0,0.10666 0,0.15999 0,0.0267 0.005,0.0537 0,0.08 -0.01276,0.0666 -0.01678,0.0278 -0.03681,0.08 -0.002,0.005 0.0043,0.0122 0,0.016 -0.0097,0.008 -0.02455,0.0107 -0.03681,0.016 -0.01226,0.0107 -0.02598,0.0202 -0.03681,0.032 -0.01382,0.015 -0.02394,0.0324 -0.0368,0.0479 -0.03848,0.0467 -0.100625,0.11094 -0.128834,0.15998 -4.67e-4,7.8e-4 -0.07272,0.19 -0.07362,0.19198 -0.01019,0.0222 -0.02601,0.0421 -0.03681,0.064 -0.0076,0.0155 -0.0076,0.034 -0.0184,0.0479 -0.0034,0.005 -0.01407,-0.004 -0.01841,0 -0.0043,0.004 0,0.0107 0,0.016 0,0.0213 0,0.0426 0,0.064 0,0.0163 -0.0029,0.10422 0,0.112 0.02224,0.058 0.04131,0.0628 0.07362,0.11198 0.03061,0.0466 0.05425,0.0935 0.07363,0.14399 0.0062,0.016 0.0146,0.0314 0.0184,0.0479 7.6e-5,3.3e-4 0.002,0.0588 0,0.064 -0.02223,0.0579 -0.0087,0.0114 -0.0368,0.0479 -0.0076,0.01 -0.01332,0.0209 -0.0184,0.0321 -0.02144,0.0466 -0.03695,0.0963 -0.05521,0.144 -0.0062,0.016 -0.0097,0.0329 -0.0184,0.0479 -0.0084,0.0147 -0.06897,0.0518 -0.07362,0.064 -0.0039,0.0101 0.0055,0.0225 0,0.032 -0.0027,0.005 -0.01407,-0.004 -0.0184,0 -0.0043,0.004 0,0.0107 0,0.016 -0.01226,0.005 -0.0238,0.0121 -0.03681,0.016 -0.0058,0.002 -0.01566,-0.005 -0.0184,0 -0.0055,0.01 0.0039,0.0219 0,0.0319 -0.0027,0.006 -0.01227,0.0107 -0.0184,0.0161 -0.0184,0.016 -0.04008,0.0296 -0.05521,0.0479 -0.04251,0.0517 -0.03755,0.0876 -0.07362,0.14399 -0.01489,0.0233 -0.03738,0.0423 -0.05521,0.064 -0.01285,0.0157 -0.02117,0.0344 -0.03681,0.0479 -0.01564,0.0135 -0.0368,0.0213 -0.05521,0.032 -0.0184,0.0107 -0.03489,0.0245 -0.05521,0.032 -0.05683,0.0211 -0.0877,0.016 -0.147239,0.016 -0.03068,0 -0.06134,0 -0.09201,0 -0.04294,0 -0.08604,0.004 -0.128835,0 -0.03117,-0.003 -0.06087,-0.0135 -0.09203,-0.016 -0.06109,-0.005 -0.1227,0 -0.184049,0 -0.03681,0 -0.07413,0.005 -0.11043,0 -0.03828,-0.006 -0.07202,-0.0272 -0.110429,-0.032 -0.04858,-0.006 -0.09816,0 -0.147239,0 -0.06134,0 -0.122699,0 -0.18405,0 -0.1656428,0 -0.3312869,0 -0.4969309,0 -0.079756,0 -0.1598366,0.006 -0.239264,0 -0.2800436,-0.0222 -0.414863,-0.0575 -0.680981,-0.112 -0.1042947,-0.0213 -0.2093082,-0.0402 -0.3128836,-0.064 -0.1050923,-0.0242 -0.2059249,-0.0631 -0.3128832,-0.08 -0.096765,-0.0152 -0.1963454,-0.0103 -0.2944785,-0.016 -0.085917,-0.005 -0.1721276,-0.007 -0.2576684,-0.016 -0.3889469,-0.039 -0.067526,-0.0321 -0.3680983,-0.0321 -0.2191675,0 -0.4623373,0.009 -0.6625761,0.096 -0.027436,0.012 -0.048489,0.0327 -0.07362,0.0479 -0.036243,0.0221 -0.070859,0.0468 -0.1104293,0.064 -0.049715,0.0216 -0.2894858,0.091 -0.3312884,0.096 -0.072945,0.008 -0.1472393,0 -0.2208588,0 -0.042944,0 -0.085889,0 -0.1288343,0 -0.320546,0 0.2271389,-0.004 -0.2392636,0.016 -0.079665,0.004 -0.1597272,-0.005 -0.2392639,0 -0.255215,0.0164 -0.2575076,0.0579 -0.5153371,0.032 -0.075385,-0.007 -0.1467804,-0.0337 -0.2208588,-0.0479 -0.091612,-0.0177 -0.1834241,-0.0351 -0.2760735,-0.0479 -0.097661,-0.0137 -0.1960149,-0.0236 -0.2944784,-0.032 -0.057559,-0.005 -0.3944486,-0.0198 -0.4785275,-0.032 -0.068999,-0.01 -0.1330446,-0.0404 -0.2024539,-0.0479 -0.024351,-0.003 -0.049079,0 -0.073619,0 -0.03681,0 -0.073619,0 -0.1104295,0 -0.024539,0 -0.04927,0.003 -0.073619,0 -0.0251,-0.003 -0.04848,-0.0135 -0.073619,-0.016 -0.030487,-0.003 -0.061348,0 -0.092026,0 -0.03681,0 -0.07362,0 -0.1104293,0 -0.055214,0 -0.1104295,0 -0.1656442,0 -0.02454,0 -0.049079,0 -0.07362,0 -0.00614,0 -0.012918,0.003 -0.018404,0 -0.01552,-0.006 -0.022372,-0.0236 -0.03681,-0.032 -0.011414,-0.006 -0.02454,-0.0107 -0.03681,-0.0161 -0.018405,-0.016 -0.035221,-0.0335 -0.055216,-0.0479 -0.048916,-0.0354 -0.071557,-0.0355 -0.1288342,-0.064 -0.029401,-0.0146 -0.058517,-0.0383 -0.092026,-0.0479 -0.00582,-0.002 -0.012584,0.002 -0.018404,0 -0.013014,-0.004 -0.023795,-0.0122 -0.03681,-0.0161 -0.00582,-0.002 -0.01227,0 -0.018404,0 -0.016213,0 -0.075811,0 -0.092025,0 -0.018404,0 -0.03681,0 -0.055214,0 -0.00614,0 -0.012584,0.002 -0.018404,0 -0.1333144,-0.0386 0.029018,0.005 -0.055214,-0.032 -0.010974,-0.005 -0.028132,0.007 -0.03681,0 -0.011275,-0.01 -0.015668,-0.0418 -0.03681,-0.0479 -0.011641,-0.004 -0.02454,0 -0.03681,0 -0.018404,0 -0.03681,0 -0.055214,0 -0.055214,0 -0.1104294,0 -0.1656441,0 -0.029157,0 -0.049727,0.005 -0.07362,-0.016 -0.00434,-0.004 0.00275,-0.0112 0,-0.016 -0.00389,-0.006 -0.01227,-0.0107 -0.018404,-0.016 0,-0.0107 0.00549,-0.0225 0,-0.032 -0.00275,-0.005 -0.01227,0 -0.018404,0 -0.00614,-0.0107 -0.015714,-0.0203 -0.018404,-0.032 -0.00362,-0.0157 0.00259,-0.0321 0,-0.0479 -0.00359,-0.0217 -0.015611,-0.0421 -0.018404,-0.064 -0.00338,-0.0265 0.00278,-0.0534 0,-0.08 -0.00338,-0.0323 -0.012731,-0.0639 -0.018404,-0.096 -0.00624,-0.0352 -0.021856,-0.14973 -0.03681,-0.19197 -0.015416,-0.0436 -0.038639,-0.0847 -0.055214,-0.12798 -0.012575,-0.0328 -0.053,-0.17215 -0.07362,-0.208 -0.019785,-0.0344 -0.055313,-0.061 -0.0736204,-0.096 -0.0129453,-0.0247 -0.0116188,-0.0534 -0.0184048,-0.08 -0.005486,-0.0215 -0.0152674,-0.0422 -0.0184048,-0.064 -0.008347,-0.0581 0.008347,-0.13395 0,-0.19198 -0.003173,-0.0221 -0.0256969,-0.0878 -0.0368099,-0.112 -0.019632,-0.0426 -0.0246015,-0.0269 -0.0368099,-0.08 -0.002407,-0.0105 0,-0.0213 0,-0.032 0,-0.0374 0,-0.0746 0,-0.11198 0,-0.0107 0.002976,-0.0216 0,-0.0321 -0.0298183,-0.10367 -0.0148916,0.0755 -0.0368099,-0.096 -0.003387,-0.0265 -0.0018,-0.0533 0,-0.08 0.0103137,-0.1524 0.0206963,-0.23394 0.0552147,-0.38396 0.009922,-0.0431 0.0284929,-0.0847 0.0368099,-0.12799 0.004035,-0.0211 0,-0.0427 0,-0.064 0,-0.0693 0.005486,-0.13882 0,-0.20799 -0.006807,-0.0857 -0.027281,-0.17039 -0.0368099,-0.25597 -0.008885,-0.0797 -0.006965,-0.16043 -0.0184048,-0.23999 -0.0161455,-0.11227 -0.0836539,-0.41799 -0.12883433,-0.52795 -0.0276836,-0.0673 -0.0749167,-0.12745 -0.1104294,-0.19199 -0.0319835,-0.0581 -0.0604607,-0.11767 -0.0920246,-0.17598 -0.0175235,-0.0324 -0.0368099,-0.064 -0.0552147,-0.096 -0.01227,-0.0213 -0.0292725,-0.0411 -0.0368099,-0.064 -0.005055,-0.0153 0,-0.032 0,-0.0479 0,-0.032 -0.002162,-0.0641 0,-0.096 0.0291459,-0.43071 0.00446,0.0213 0.0368099,-0.28797 0.002221,-0.0212 0,-0.0427 0,-0.064 0,-0.0161 0.006835,-0.0331 0,-0.0479 -0.006445,-0.014 -0.02597,-0.0202 -0.0368099,-0.032 -0.0138183,-0.015 -0.0269175,-0.0308 -0.0368099,-0.0479 -0.0340607,-0.0593 -0.008417,-0.0426 -0.0184048,-0.11199 -0.003138,-0.0218 -0.0156115,-0.0421 -0.0184048,-0.064 -0.003387,-0.0265 0,-0.0533 0,-0.08 0,-0.0373 -0.003293,-0.0747 0,-0.11198 0.0244823,-0.27666 0.003974,0.0689 0.0552147,-0.17599 0.0291852,-0.13954 -0.0289834,-0.0501 0.0184048,-0.15999 0.029161,-0.0676 0.14867401,-0.21468 0.1656441,-0.23998 0.067754,-0.10097 0.20181695,-0.33917 0.27607352,-0.43197 0.0421872,-0.0527 0.0973202,-0.0966 0.14723921,-0.14399 0.017588,-0.0167 0.040776,-0.0291 0.055214,-0.0479 0.010761,-0.0141 0.00469,-0.0361 0.018404,-0.0479 0.052674,-0.0457 0.023051,0.0399 0.055214,-0.016 0.00274,-0.005 0,-0.0107 0,-0.016 0.00613,-0.0107 0.011347,-0.0217 0.018404,-0.032 0.011381,-0.0164 0.023953,-0.0324 0.03681,-0.0479 0.017829,-0.0217 0.041496,-0.0402 0.055214,-0.064 0.011312,-0.0197 0.01227,-0.0426 0.018404,-0.064 0.00614,-0.0213 0.015611,-0.0422 0.018404,-0.064 0.00339,-0.0265 0,-0.0533 0,-0.08 0,-0.0374 0,-0.0746 0,-0.112 0,-0.0213 0.00595,-0.0433 0,-0.064 -0.00666,-0.0232 -0.027176,-0.0416 -0.03681,-0.064 -0.00888,-0.0206 -0.010405,-0.0431 -0.018404,-0.064 -0.010446,-0.0273 -0.027734,-0.0524 -0.03681,-0.08 -0.00337,-0.0102 0,-0.0213 0,-0.032 0,-0.0267 0,-0.0533 0,-0.08 0,-0.032 0.00605,-0.0644 0,-0.096 -0.018826,-0.0982 -0.043857,-0.0922 -0.092025,-0.17599 -0.014776,-0.0257 -0.023795,-0.0536 -0.03681,-0.08 -0.00541,-0.011 -0.015714,-0.0203 -0.018404,-0.032 -0.00362,-0.0157 0,-0.032 0,-0.0479 0,-0.0401 -0.00868,-0.0343 0.03681,-0.064 0.010974,-0.006 0.023795,-0.0122 0.03681,-0.016 0.00582,-0.002 0.014067,0.004 0.018404,0 0.03808,-0.0331 -0.058192,0.002 0.018404,-0.032 0.010974,-0.005 0.028134,0.007 0.03681,0 0.00434,-0.004 0,-0.0107 0,-0.016 0,-0.0113 -0.00237,-0.0919 0,-0.096 0.042115,-0.0732 -0.00762,0.0679 0.03681,-0.0479 0.00582,-0.0152 -0.00582,-0.0328 0,-0.0479 0.00275,-0.006 0.014525,-0.009 0.018404,-0.016 0.00549,-0.01 -0.00456,-0.0221 0,-0.032 0.010189,-0.0222 0.02454,-0.0427 0.03681,-0.064 z"
       id="path827"
       inkscape:connector-curvature="0"
       inkscape:export-xdpi="96"
       inkscape:export-ydpi="96" />
  </g>
</svg>
